HIERARCHY
ROOT Hips
{
	OFFSET 0.000000 0.000000 0.000000
	CHANNELS 6 Xposition Yposition Zposition Xrotation Yrotation Zrotation
	JOINT LeftUpLeg_virtual
	{
		OFFSET 0.000000 0.000000 0.000000
		CHANNELS 3 Xrotation Yrotation Zrotation
		JOINT LeftUpLeg
		{
			OFFSET 10.205400 -3.823500 0.155100
			CHANNELS 3 Xrotation Yrotation Zrotation
			JOINT LeftLeg
			{
				OFFSET 0.708757 -12.982077 0.567790
				CHANNELS 3 Xrotation Yrotation Zrotation
				JOINT LeftFoot
				{
					OFFSET -0.708756 -10.717838 -2.184338
					CHANNELS 3 Xrotation Yrotation Zrotation
					JOINT LeftToeBase
					{
						OFFSET 0.108149 -7.191104 7.560241
						CHANNELS 3 Xrotation Yrotation Zrotation
						JOINT LeftToe_End
						{
							OFFSET 0.070230 0.081724 4.490308
							CHANNELS 3 Xrotation Yrotation Zrotation
							End Site
							{
								OFFSET 0 0 0
							}
						}
					}
				}
			}
		}
	}
	JOINT RightUpLeg_virtual
	{
		OFFSET 0.000000 0.000000 0.000000
		CHANNELS 3 Xrotation Yrotation Zrotation
		JOINT RightUpLeg
		{
			OFFSET -10.205400 -3.823500 0.005500
			CHANNELS 3 Xrotation Yrotation Zrotation
			JOINT RightLeg
			{
				OFFSET -0.708756 -12.982134 0.610632
				CHANNELS 3 Xrotation Yrotation Zrotation
				JOINT RightFoot
				{
					OFFSET 0.708754 -10.717769 -1.945823
					CHANNELS 3 Xrotation Yrotation Zrotation
					JOINT RightToeBase
					{
						OFFSET -0.108140 -7.191069 7.372968
						CHANNELS 3 Xrotation Yrotation Zrotation
						JOINT RightToe_End
						{
							OFFSET -0.070227 0.081735 4.479403
							CHANNELS 3 Xrotation Yrotation Zrotation
							End Site
							{
								OFFSET 0 0 0
							}
						}
					}
				}
			}
		}
	}
	JOINT Spine_virtual
	{
		OFFSET 0.000000 0.000000 0.000000
		CHANNELS 3 Xrotation Yrotation Zrotation
		JOINT Spine
		{
			OFFSET 0.000000 6.876099 0.125700
			CHANNELS 3 Xrotation Yrotation Zrotation
			JOINT Spine1
			{
				OFFSET 0.000000 5.730043 0.104720
				CHANNELS 3 Xrotation Yrotation Zrotation
				JOINT Spine1_split
				{
					OFFSET 0.000000 5.730043 0.104720
					CHANNELS 3 Xrotation Yrotation Zrotation
					JOINT Spine2
					{
						OFFSET 0.000000 5.730043 0.104720
						CHANNELS 3 Xrotation Yrotation Zrotation
						JOINT Neck_virtual
						{
							OFFSET 0.000000 0.000000 0.000000
							CHANNELS 3 Xrotation Yrotation Zrotation
							JOINT Neck
							{
								OFFSET 0.000000 10.314075 0.188496
								CHANNELS 3 Xrotation Yrotation Zrotation
								JOINT Head
								{
									OFFSET 0.000000 7.643700 -2.377400
									CHANNELS 3 Xrotation Yrotation Zrotation
									JOINT HeadTop_End
									{
										OFFSET 0.000000 43.788605 -13.619600
										CHANNELS 3 Xrotation Yrotation Zrotation
										End Site
										{
											OFFSET 0 0 0
										}
									}
								}
							}
						}
						JOINT LeftShoulder_virtual
						{
							OFFSET 0.000000 0.000000 0.000000
							CHANNELS 3 Xrotation Yrotation Zrotation
							JOINT LeftShoulder
							{
								OFFSET 2.196100 4.412489 0.087492
								CHANNELS 3 Xrotation Yrotation Zrotation
								JOINT LeftShoulder_split
								{
									OFFSET 2.196100 4.412489 0.087492
									CHANNELS 3 Xrotation Yrotation Zrotation
									JOINT LeftArm
									{
										OFFSET 8.771219 -2.981674 -0.026999
										CHANNELS 3 Xrotation Yrotation Zrotation
										JOINT LeftForeArm
										{
											OFFSET 8.512804 0.000000 -0.000000
											CHANNELS 3 Xrotation Yrotation Zrotation
											JOINT LeftHand
											{
												OFFSET 18.484802 0.000000 -0.000000
												CHANNELS 3 Xrotation Yrotation Zrotation
												End Site
												{
													OFFSET 0 0 0
												}
											}
										}
									}
								}
							}
						}
						JOINT RightShoulder_virtual
						{
							OFFSET 0.000000 0.000000 0.000000
							CHANNELS 3 Xrotation Yrotation Zrotation
							JOINT RightShoulder
							{
								OFFSET -2.196100 4.412496 0.070690
								CHANNELS 3 Xrotation Yrotation Zrotation
								JOINT RightShoulder_split
								{
									OFFSET -2.196100 4.412496 0.070690
									CHANNELS 3 Xrotation Yrotation Zrotation
									JOINT RightArm
									{
										OFFSET -8.771282 -2.981682 -0.094208
										CHANNELS 3 Xrotation Yrotation Zrotation
										JOINT RightForeArm
										{
											OFFSET -8.494598 0.000000 0.000000
											CHANNELS 3 Xrotation Yrotation Zrotation
											JOINT RightHand
											{
												OFFSET -18.483803 0.000000 0.000001
												CHANNELS 3 Xrotation Yrotation Zrotation
												End Site
												{
													OFFSET 0 0 0
												}
											}
										}
									}
								}
							}
						}
					}
				}
			}
		}
	}
}
MOTION
Frames: 6
Frame Time: 0.03333333
2.627483 18.770666 -9.196232 0.000000 0.000000 0.000000 32.444321 13.307281 0.720444 -96.039795 -8.456759 19.994919 108.652628 -5.281657 -1.522830 -15.212897 2.101715 -18.444578 -17.792943 -3.670810 -10.031357 0.000000 0.000000 0.000000 33.028093 10.139286 1.716540 -89.648535 -5.452490 -15.474741 125.643611 15.601045 -8.036973 -43.458656 -16.279930 -10.958758 -13.683373 7.694349 -21.778284 0.000000 0.000000 0.000000 36.855998 9.997769 0.950049 9.833866 -0.240619 0.280450 19.482358 -3.508339 -3.927398 0.356320 -0.032739 -0.020996 0.000000 0.000000 0.000000 20.355748 -2.781731 -3.578779 -21.123340 9.829119 5.149094 -28.467725 27.006747 24.295149 0.000000 0.000000 0.000000 18.563872 -3.195207 -5.116166 3.543909 0.131637 4.229747 10.868203 -4.542276 2.635618 -34.533447 -24.974197 -27.124903 -31.295671 -78.730511 -36.122248 0.000000 0.000000 0.000000 21.788143 -2.699293 -4.121341 10.484018 29.391721 1.302780 2.235585 2.325521 3.602757 -43.014732 12.470763 30.762994 -31.508489 53.396442 13.999577 0.000000 0.000000 0.000000 
2.454308 17.357141 -9.315065 0.000000 0.000000 0.000000 34.887971 16.889547 -0.281371 -89.839329 -11.710258 25.559956 114.106916 -8.542038 -1.657707 -28.785375 6.695659 -19.462411 -18.438946 -3.093723 -13.612926 0.000000 0.000000 0.000000 34.768351 12.847739 1.138977 -99.230074 2.176751 -16.546615 131.094321 13.546493 -5.040026 -38.312717 -20.743466 -7.783089 -15.270401 8.400900 -19.174882 0.000000 0.000000 0.000000 39.898816 12.818150 0.365197 9.160125 -0.520227 -0.712053 17.617185 -3.163183 -3.154797 0.295999 -0.042596 0.053401 0.000000 0.000000 0.000000 18.460396 -2.516006 -2.910769 -17.162630 9.800372 2.855675 -28.145388 20.902768 26.191378 0.000000 0.000000 0.000000 16.630734 -2.943666 -4.285799 3.356720 -0.167559 3.713838 9.899898 -3.962906 1.546427 -33.332938 -31.509165 -25.977547 -36.488042 -78.567229 -41.983783 0.000000 0.000000 0.000000 19.949130 -2.580564 -3.450183 10.347128 30.466158 3.286400 2.200036 1.894955 3.855948 -44.893174 16.815719 31.124492 -28.128512 50.333327 11.139697 0.000000 0.000000 0.000000 
2.213272 16.258379 -9.350643 0.000000 0.000000 0.000000 37.189461 20.058541 -1.556672 -83.633781 -14.276549 31.035478 116.553531 -12.721731 -0.272342 -37.714290 10.079781 -23.866086 -17.794632 -3.232729 -14.687273 0.000000 0.000000 0.000000 36.563089 15.290456 0.262443 -105.876702 8.345970 -16.042432 134.959852 12.175413 -2.108072 -33.260607 -23.895557 -4.234724 -17.584346 9.370240 -17.350374 0.000000 0.000000 0.000000 42.658968 15.427985 -0.472638 8.498951 -0.796251 -1.672556 15.601974 -2.801429 -2.142208 0.183540 -0.056370 0.137489 0.000000 0.000000 0.000000 16.417340 -2.139380 -2.094705 -13.619630 9.324768 0.721778 -27.650271 14.324032 27.642822 0.000000 0.000000 0.000000 14.659859 -2.607963 -3.233463 3.251903 -0.386494 2.839732 8.467686 -3.187033 -0.322050 -30.882185 -37.181214 -26.215963 -34.644140 -76.711630 -40.566990 0.000000 0.000000 0.000000 18.000040 -2.352174 -2.571730 10.152798 30.461121 5.090827 2.159435 1.579114 4.391560 -45.978074 19.548923 32.375438 -25.436234 47.865730 8.933273 0.000000 0.000000 0.000000 
1.968815 15.502205 -9.312048 0.000000 0.000000 0.000000 39.347596 22.316905 -2.902891 -78.942958 -16.376338 35.763383 117.281656 -16.594737 1.757261 -41.554184 11.870991 -29.331011 -18.720541 -3.874917 -13.450884 0.000000 0.000000 0.000000 38.438495 16.943106 -0.761439 -109.794533 12.368105 -14.733883 137.376373 11.187705 0.698646 -30.355902 -25.627882 -1.689809 -19.811339 10.391036 -16.431043 0.000000 0.000000 0.000000 45.181169 17.210828 -1.313323 7.947658 -0.929780 -2.331278 13.758750 -2.475898 -1.073385 0.092931 -0.175700 0.221777 0.000000 0.000000 0.000000 14.560100 -1.744788 -1.226424 -10.830399 8.608151 -1.211683 -27.384407 8.158150 28.345782 0.000000 0.000000 0.000000 12.970368 -2.280627 -2.149007 3.222575 -0.503349 1.680733 6.773395 -2.130321 -2.516962 -27.552739 -41.612832 -26.949345 -29.722145 -73.713710 -35.755139 0.000000 0.000000 0.000000 16.255348 -2.062530 -1.612436 10.044491 29.536351 6.352167 1.949256 1.239113 5.232500 -45.787027 20.727828 33.670295 -23.502437 45.889401 7.303330 0.000000 0.000000 0.000000 
1.764421 15.052504 -9.106398 0.000000 0.000000 0.000000 41.197461 23.382707 -4.026829 -76.764018 -18.237563 38.960946 118.014508 -18.874924 3.411890 -42.017691 12.005166 -33.229700 -19.777392 -4.637312 -12.665268 0.000000 0.000000 0.000000 40.386130 17.320115 -1.505366 -111.127328 14.026943 -13.130934 138.687674 10.246586 3.374607 -30.833987 -26.126280 -1.657540 -21.023078 11.274148 -16.375848 0.000000 0.000000 0.000000 47.262399 18.150111 -2.032158 7.503656 -0.817862 -2.500832 12.331750 -2.221703 -0.123599 0.016945 -0.333561 0.252246 0.000000 0.000000 0.000000 13.118558 -1.414127 -0.480197 -8.820686 7.692255 -2.887958 -27.625194 3.391695 28.118670 0.000000 0.000000 0.000000 11.760554 -2.017828 -1.183009 3.252261 -0.428433 0.366751 5.090692 -1.166535 -4.497886 -24.020520 -44.920658 -27.448399 -24.799865 -70.328238 -30.605125 0.000000 0.000000 0.000000 14.907858 -1.755115 -0.729707 10.099812 27.804245 6.891411 1.944929 1.347358 6.071117 -44.365398 20.716189 34.328814 -22.445431 44.284556 6.242689 0.000000 0.000000 0.000000 
1.620412 14.847812 -8.913269 0.000000 0.000000 0.000000 42.435771 23.272377 -4.614968 -77.182558 -19.831632 40.310783 119.074854 -19.364503 4.566835 -41.164290 11.074954 -35.063746 -20.537616 -5.100150 -13.450524 0.000000 0.000000 0.000000 42.027875 16.460059 -1.679561 -110.525643 13.912205 -11.503690 139.272625 9.335273 5.834606 -33.436962 -25.799030 -3.534157 -21.230695 11.924960 -17.118104 0.000000 0.000000 0.000000 48.713473 18.263745 -2.534750 7.214063 -0.484412 -2.223726 11.407369 -2.046139 0.534562 -0.031063 -0.492461 0.232978 0.000000 0.000000 0.000000 12.199742 -1.181010 -0.011571 -7.527772 6.671366 -4.211971 -28.229812 0.707596 27.126901 0.000000 0.000000 0.000000 11.082253 -1.852339 -0.504334 3.318114 -0.139980 -0.874828 3.613045 -0.267689 -5.831815 -20.902493 -47.340369 -27.342897 -21.045227 -67.447476 -26.282587 0.000000 0.000000 0.000000 14.064514 -1.473612 -0.078566 10.275641 25.683221 6.784500 1.990666 1.982047 6.673033 -42.149435 20.110893 34.191978 -22.254810 43.058004 5.782107 0.000000 0.000000 0.000000 
